<svg id="Capa_1" enable-background="new 0 0 512 512" height="512" viewBox="0 0 512 512" width="512" xmlns="http://www.w3.org/2000/svg"><g><path d="m504.785 302.843c-5.175-3.741-12.154-3.793-17.387-.131l-9.885 6.919c-60.433 42.303-96.513 111.6-96.513 185.369v2h100v-2c0-51.624 7.521-102.87 22.355-152.316l7.012-23.374c1.836-6.118-.404-12.727-5.582-16.467z" fill="#00a763"/><path d="m34.487 309.631-9.885-6.919c-5.232-3.662-12.211-3.61-17.388.131s-7.417 10.35-5.582 16.468l7.012 23.374c14.835 49.445 22.356 100.692 22.356 152.315v2h100v-2c0-73.769-36.079-143.066-96.513-185.369z" fill="#a2e786"/><path d="m177.187 309.407c-28.662-57.325-70.914-107.952-122.187-146.407-5.633-4.225-13.447-3.963-18.785.631-5.337 4.593-6.761 12.281-3.422 18.48 44.622 82.869 68.207 176.419 68.207 270.537v44.352h120v-2c0-64.091-15.15-128.268-43.813-185.593z" fill="#00cb75"/><path d="m475.784 163.631c-5.337-4.593-13.15-4.856-18.784-.631-51.273 38.455-93.525 89.082-122.188 146.406-28.661 57.326-43.812 121.503-43.812 185.594v2h120v-44.352c0-94.119 23.586-187.669 68.207-270.537 3.339-6.199 1.915-13.887-3.423-18.48z" fill="#007845"/><path d="m414.77 2.831c-5.969-4.301-14.176-3.638-19.377 1.564l-2.009 2.009c-65.437 65.436-116.333 142.087-151.274 227.825-.733 1.797-1.109 3.72-1.109 5.661v255.11h80v-56.393c0-143.968 34.032-288.128 98.416-416.898 3.29-6.581 1.321-14.576-4.647-18.878z" fill="#00a763"/><path d="m268.402 230.574c-34.901-84.259-85.296-159.681-149.785-224.17l-2.01-2.01c-5.202-5.203-13.41-5.864-19.377-1.562-5.968 4.301-7.936 12.296-4.646 18.876 64.384 128.77 98.416 272.931 98.416 416.899v58.393h130v-2c0-91.201-17.696-180.167-52.598-264.426z" fill="#a2e786"/><path d="m256 202.425v294.575h65v-2c0-91.201-17.696-180.167-52.598-264.426-3.934-9.499-8.076-18.878-12.402-28.149z" fill="#00cb75"/><path d="m497 512h-482c-8.284 0-15-6.716-15-15s6.716-15 15-15h482c8.284 0 15 6.716 15 15s-6.716 15-15 15z" fill="#af8663"/><path d="m497 482h-241v30h241c8.284 0 15-6.716 15-15s-6.716-15-15-15z" fill="#896645"/></g></svg>